<svg id="Capa_1" enable-background="new 0 0 512 512" height="512" viewBox="0 0 512 512" width="512" xmlns="http://www.w3.org/2000/svg"><g><path d="m463.999 68.23h-27.064c-8.844 0-16.04 7.192-16.04 16.032v27.043c0 4.142 3.358 7.5 7.5 7.5s7.5-3.358 7.5-7.5v-27.043c0-.531.505-1.032 1.04-1.032h27.064c4.142 0 7.5-3.358 7.5-7.5s-3.358-7.5-7.5-7.5z"/><path d="m360.11 83.23h27.036c.554 0 1.039.482 1.039 1.032v27.043c0 4.142 3.358 7.5 7.5 7.5s7.5-3.358 7.5-7.5v-27.043c0-8.84-7.195-16.032-16.039-16.032h-27.036c-4.142 0-7.5 3.358-7.5 7.5s3.358 7.5 7.5 7.5z"/><path d="m360.11 50.546h27.036c8.844 0 16.039-7.192 16.039-16.032v-27.014c0-4.142-3.358-7.5-7.5-7.5s-7.5 3.358-7.5 7.5v27.014c0 .56-.476 1.032-1.039 1.032h-27.036c-4.142 0-7.5 3.358-7.5 7.5s3.358 7.5 7.5 7.5z"/><path d="m436.935 50.546h27.064c4.142 0 7.5-3.358 7.5-7.5s-3.358-7.5-7.5-7.5h-27.064c-.554 0-1.04-.482-1.04-1.032v-27.014c0-4.142-3.358-7.5-7.5-7.5s-7.5 3.358-7.5 7.5v27.014c0 8.84 7.196 16.032 16.04 16.032z"/><path d="m410.273 397.495c-7.991-61.878-58.121-75.221-98.402-85.941-2.621-.698-5.218-1.389-7.777-2.086-7.832-2.134-11.728-11.93-14.306-18.859 27.342-18.633 49.219-47.438 57.58-76.019 7.236-1.397 14.589-5.35 20.522-11.202 7.213-7.113 11.351-16.045 11.351-24.504v-11.225c0-10.403-8.455-18.867-18.848-18.867h-9.525c-1.45-32.384-12.271-62.214-30.852-84.657-21.859-26.404-52.333-40.67-88.128-41.257-.083 0-.167 0-.25 0-19.955.339-39.544 5.591-56.65 15.188-3.612 2.027-4.897 6.599-2.871 10.211 2.027 3.612 6.599 4.896 10.211 2.871 14.911-8.366 32.005-12.954 49.441-13.27 68.024 1.186 100.881 56.236 104.023 109.882-14.288-2.751-20.966-9.56-27.457-16.176-7.911-8.065-16.878-17.208-36.394-12.177-5.719 1.471-10.539 2.755-14.792 3.889-12.992 3.463-19.514 5.201-25.384 5.201-5.865 0-12.38-1.735-25.359-5.191-4.267-1.136-9.104-2.424-14.839-3.897-19.508-5.034-28.474 4.11-36.385 12.175-6.495 6.622-13.18 13.436-27.48 16.183 1.625-32.292 12.563-59.55 31.882-79.224 2.902-2.956 2.859-7.704-.097-10.606s-7.704-2.858-10.606.097c-22.306 22.717-34.758 53.977-36.24 90.76h-9.502c-10.393 0-18.848 8.464-18.848 18.867v11.225c0 8.459 4.137 17.391 11.351 24.504 5.934 5.851 13.286 9.805 20.521 11.202 8.36 28.585 30.236 57.39 57.58 76.022-2.578 6.929-6.474 16.722-14.301 18.856-2.547.693-5.129 1.379-7.735 2.073-28.07 7.465-59.886 15.927-79.99 40.497-2.623 3.206-2.15 7.931 1.055 10.554 1.394 1.14 3.075 1.695 4.745 1.695 2.172 0 4.326-.938 5.809-2.75 17.034-20.819 45.097-28.282 72.235-35.5 2.634-.701 5.244-1.395 7.821-2.095.244-.067.479-.144.718-.217l47.34 28.056c7.594 4.441 13.955 6.664 20.319 6.664 6.372 0 12.749-2.228 20.37-6.686l47.303-28.034c.24.072.475.15.719.217 2.588.705 5.212 1.403 7.861 2.108 39.666 10.558 80.682 21.474 87.383 73.37l12.48 96.417c.056.439.092.812.115 1.127-.379.022-.844.038-1.412.038h-69.268v-66.995c0-4.142-3.358-7.5-7.5-7.5s-7.5 3.358-7.5 7.5v66.991h-181.117v-66.995c0-4.142-3.358-7.5-7.5-7.5s-7.5 3.358-7.5 7.5v66.995h-69.24c-.569 0-1.037-.015-1.417-.038.024-.312.061-.68.117-1.111l12.455-96.437c.442-3.432 1.05-6.742 1.806-9.84.981-4.024-1.485-8.082-5.509-9.063-4.026-.985-8.083 1.485-9.064 5.509-.886 3.635-1.596 7.496-2.109 11.475l-12.453 96.423c-.495 3.784-.731 9.293 2.91 13.442 3.61 4.112 8.985 4.64 13.264 4.64h349.626c4.267 0 9.628-.525 13.235-4.619 3.642-4.133 3.424-9.647 2.941-13.453zm-46.032-229.837v11.225c0 4.406-2.573 9.574-6.883 13.824-2.039 2.01-4.326 3.688-6.67 4.942.23-2.419.354-4.822.354-7.2v-26.658h9.352c2.121 0 3.847 1.735 3.847 3.867zm-258.067 25.049c-4.31-4.25-6.883-9.417-6.883-13.824v-11.225c0-2.132 1.726-3.867 3.848-3.867h9.352v26.658c0 2.374.124 4.772.353 7.186-2.345-1.248-4.633-2.919-6.67-4.928zm23.258 13.428c-.029-.14-.065-.276-.101-.413-1.193-5.185-1.84-10.307-1.84-15.273v-27.44c21.004-3.19 30.949-13.327 38.401-20.923 7.424-7.568 10.814-11.021 21.938-8.152 5.679 1.458 10.481 2.737 14.719 3.866 14.242 3.792 21.391 5.696 29.219 5.696 7.835 0 14.991-1.907 29.247-5.707 4.223-1.125 9.01-2.401 14.669-3.856 11.132-2.868 14.521.586 21.946 8.154 7.452 7.597 17.397 17.734 38.415 20.923v27.44c0 4.981-.652 10.12-1.853 15.321-.031.118-.063.236-.088.357-8.081 34.282-40.568 71.257-76.935 84.749-9.505 3.512-17.577 5.148-25.401 5.148s-15.896-1.636-25.393-5.145c-36.374-13.488-68.86-50.458-76.943-84.745zm115.087 132.697c-10.487 6.135-15.017 6.135-25.468.022l-41.19-24.411c4.303-5.075 7.032-11.093 8.935-15.955 4.691 2.477 9.491 4.649 14.37 6.458 11.222 4.146 20.945 6.078 30.6 6.078s19.378-1.931 30.61-6.081c4.876-1.809 9.673-3.979 14.36-6.456 1.903 4.862 4.632 10.881 8.935 15.956z"/><path d="m187.737 195.846c-4.142 0-7.5 3.358-7.5 7.5v9.27c0 4.142 3.358 7.5 7.5 7.5s7.5-3.358 7.5-7.5v-9.27c0-4.142-3.358-7.5-7.5-7.5z"/><path d="m274.292 195.846c-4.142 0-7.5 3.358-7.5 7.5v9.27c0 4.142 3.358 7.5 7.5 7.5s7.5-3.358 7.5-7.5v-9.27c0-4.142-3.358-7.5-7.5-7.5z"/><path d="m215.981 187.052c1.646-3.801-.101-8.217-3.901-9.863l-27.292-11.821c-3.804-1.647-8.217.101-9.863 3.901-1.646 3.801.101 8.217 3.901 9.863l27.292 11.821c.971.42 1.982.62 2.977.62 2.899 0 5.661-1.692 6.886-4.521z"/><path d="m256.906 190.439c.995 0 2.006-.199 2.977-.62l27.292-11.821c3.801-1.646 5.547-6.063 3.901-9.863-1.647-3.801-6.062-5.547-9.863-3.901l-27.291 11.821c-3.801 1.646-5.547 6.063-3.901 9.863 1.224 2.83 3.985 4.521 6.885 4.521z"/><path d="m213.468 259.076c2.928 2.93 7.676 2.932 10.606.004 5.001-4.998 12.734-3.77 17.323.304 1.428 1.268 3.206 1.891 4.976 1.891 2.069 0 4.13-.852 5.612-2.521 2.75-3.098 2.468-7.838-.63-10.588-11.158-9.907-27.799-9.774-37.884.304-2.93 2.927-2.931 7.676-.003 10.606z"/></g></svg>