<svg width="1024" height="1024" viewBox="0 0 1024 1024" fill="none" xmlns="http://www.w3.org/2000/svg">
<path d="M637.839 597.68L512 723.606L386.161 597.68L512 471.755L637.839 597.68ZM693.419 290.212L567.579 416.138L693.419 542.063L819.258 416.138L693.419 290.212ZM693.419 653.297L567.579 779.223L690.273 902H918.881C927.27 902 931.465 891.506 925.173 886.259L693.419 653.297ZM874.837 471.755L748.998 597.68L943 791.815V552.557C943 545.211 939.854 537.866 934.611 532.619L874.837 471.755ZM81 552.557V791.815L637.839 234.595L532.973 129.657C521.438 118.114 503.611 118.114 493.124 129.657L90.438 532.619C84.146 537.866 81 545.211 81 552.557ZM330.581 653.297L98.8273 885.21C92.5353 891.506 96.7299 900.951 105.119 900.951H579.114L330.581 653.297Z" fill="url(#paint0_linear)"/>
<defs>
<linearGradient id="paint0_linear" x1="512" y1="121" x2="512" y2="892.989" gradientUnits="userSpaceOnUse">
<stop stop-color="#46B2CC"/>
<stop offset="1" stop-color="#44D5C9"/>
</linearGradient>
</defs>
</svg>
