<svg width="361" height="75" viewBox="0 0 361 75" fill="none" xmlns="http://www.w3.org/2000/svg">
<path d="M53.1 45.425L41.1 57.425L29.1 45.425L41.1 33.425L53.1 45.425ZM58.4 16.125L46.4 28.125L58.4 40.125L70.4 28.125L58.4 16.125ZM58.4 50.725L46.4 62.725L58.1 74.425H79.9C80.7 74.425 81.1 73.425 80.5 72.925L58.4 50.725ZM75.7 33.425L63.7 45.425L82.2 63.925V41.125C82.2 40.425 81.9 39.725 81.4 39.225L75.7 33.425ZM0 41.125V63.925L53.1 10.825L43.1 0.825C42 -0.275 40.3 -0.275 39.3 0.825L0.900002 39.225C0.300002 39.725 0 40.425 0 41.125ZM23.8 50.725L1.7 72.825C1.1 73.425 1.5 74.325 2.3 74.325H47.5L23.8 50.725Z" fill="url(#paint0_linear)"/>
<path d="M141.4 74.425H153L133.3 16.125H119.2L99.5 74.425H111.1L115.2 61.525H137.2L141.4 74.425ZM134.1 51.625H118.5L125.3 30.725H127.3L134.1 51.625Z" fill="black"/>
<path d="M228.1 32.925H217.9V74.425H228.1V32.925Z" fill="black"/>
<path d="M223 14.025C219.2 14.025 216 17.125 216 20.925C216 24.625 219.2 27.725 223 27.725C226.7 27.725 229.8 24.625 229.8 20.925C229.8 17.025 226.8 14.025 223 14.025Z" fill="black"/>
<path d="M245.7 74.425H261.3L274.7 32.925H264L254.3 63.825H252.6L252.5 63.625L242.8 32.925H232.2L245.7 74.425Z" fill="black"/>
<path d="M295 32.525C284.7 32.525 274.3 39.725 274.3 53.325C274.3 65.625 283.3 74.825 295.3 74.825C303.8 74.825 310.9 70.025 314 62.325H303.9C303.4 62.925 300.9 65.825 295.6 65.825C291 65.825 285.6 63.525 284.3 56.925L284.2 56.625H314.9C315.4 49.125 313.6 42.925 309.6 38.625C306.2 34.725 300.8 32.525 295 32.525ZM304.6 48.625H285L285.1 48.325C286.8 43.825 290.6 41.225 295.3 41.225C298.6 41.225 302.9 42.425 304.5 48.425L304.6 48.625Z" fill="black"/>
<path d="M338.9 32.525C327.9 32.525 319.6 41.625 319.6 53.725C319.6 65.825 328.3 74.925 339.3 74.925C343.6 74.925 347.1 73.425 349.8 70.525L349.9 70.425H351.1L352.3 74.425H360.1V15.325H350.1V37.525L349.7 37.025C346.9 34.025 343.3 32.525 338.9 32.525ZM340.5 65.025C335.4 65.025 330 61.425 330 53.725C330 46.025 335.4 42.425 340.5 42.425C346.3 42.425 350 46.925 350 53.725C350 60.525 346.3 65.025 340.5 65.025Z" fill="black"/>
<path d="M211.2 32.925C204.5 32.925 200.4 36.025 198.5 37.925L198.4 38.025H197.1L195.5 33.025H187.5V74.5251H198.2V53.925C198.2 45.825 204.8 42.925 210.5 42.925C211.8 42.925 213.1 43.0251 213.9 43.2251V32.925H211.2Z" fill="black"/>
<path d="M180.8 32.925C174.1 32.925 170 36.025 168.1 37.925L168 38.025H166.7L165.1 33.025H157.1V74.5251H167.8V53.925C167.8 45.825 174.4 42.925 180.1 42.925C181.4 42.925 182.7 43.0251 183.5 43.2251V32.925H180.8Z" fill="black"/>
<defs>
<linearGradient id="paint0_linear" x1="41.1" y1="0" x2="41.1" y2="73.5663" gradientUnits="userSpaceOnUse">
<stop stop-color="#46B2CC"/>
<stop offset="1" stop-color="#44D5C9"/>
</linearGradient>
</defs>
</svg>
