<svg width="100" height="91" viewBox="0 0 100 91" fill="none" xmlns="http://www.w3.org/2000/svg">
<path d="M94.1406 0H5.85938C2.62852 0 0 2.62852 0 5.85938V64.0625C0 67.2934 2.62852 69.9219 5.85938 69.9219H34.5703V84.375H18.75C17.132 84.375 15.8203 85.6867 15.8203 87.3047C15.8203 88.9227 17.132 90.2344 18.75 90.2344H81.25C82.868 90.2344 84.1797 88.9227 84.1797 87.3047C84.1797 85.6867 82.868 84.375 81.25 84.375H65.4297V69.9219H94.1406C97.3715 69.9219 100 67.2934 100 64.0625V5.85938C100 2.62852 97.3715 0 94.1406 0ZM59.5703 84.375H40.4297V69.9219H59.5703V84.375ZM94.1406 64.0625C91.5709 64.0625 7.91875 64.0625 5.85938 64.0625V5.85938H94.1406C94.1443 65.3266 94.1602 64.0625 94.1406 64.0625Z" fill="#6976E1"/>
</svg>
