<svg width="100" height="100" viewBox="0 0 100 100" fill="none" xmlns="http://www.w3.org/2000/svg">
<path d="M97.9167 47.9167C99.0833 47.9167 100 48.8333 100 50C100 51.1667 99.0833 52.0833 97.9167 52.0833H95.8333V47.9167H97.9167Z" fill="#6976E1"/>
<path d="M52.0833 47.9167H95.8333V52.0833H52.0833V47.9167Z" fill="#6976E1"/>
<path d="M89.5833 100H50C51.1667 100 52.0833 99.0833 52.0833 97.9167V95.8333H89.5833C93.0417 95.8333 95.8333 93.0417 95.8333 89.5833V52.0833H97.9167C99.0833 52.0833 100 51.1667 100 50V89.5833C100 95.3333 95.3333 100 89.5833 100Z" fill="#6976E1"/>
<path d="M100 10.4167V50C100 48.8333 99.0833 47.9167 97.9167 47.9167H95.8333V10.4167C95.8333 6.95833 93.0417 4.16667 89.5833 4.16667H52.0833V2.08333C52.0833 0.916667 51.1667 0 50 0H89.5833C95.3333 0 100 4.66667 100 10.4167Z" fill="#6976E1"/>
<path d="M83.3333 25C84.5 25 85.4167 25.9167 85.4167 27.0833C85.4167 28.25 84.5 29.1667 83.3333 29.1667H66.6667C65.5 29.1667 64.5833 28.25 64.5833 27.0833C64.5833 25.9167 65.5 25 66.6667 25H83.3333Z" fill="#6976E1"/>
<path d="M83.3333 66.6667C84.5 66.6667 85.4167 67.5834 85.4167 68.75C85.4167 69.9167 84.5 70.8334 83.3333 70.8334H66.6667C65.5 70.8334 64.5833 69.9167 64.5833 68.75C64.5833 67.5834 65.5 66.6667 66.6667 66.6667H83.3333Z" fill="#6976E1"/>
<path d="M83.3333 79.1667C84.5 79.1667 85.4167 80.0834 85.4167 81.25C85.4167 82.4167 84.5 83.3334 83.3333 83.3334H66.6667C65.5 83.3334 64.5833 82.4167 64.5833 81.25C64.5833 80.0834 65.5 79.1667 66.6667 79.1667H83.3333Z" fill="#6976E1"/>
<path d="M52.0833 95.8333V97.9167C52.0833 99.0833 51.1667 100 50 100C48.8333 100 47.9167 99.0833 47.9167 97.9167V95.8333H52.0833Z" fill="#6976E1"/>
<path d="M47.9167 52.0833H52.0833V95.8333H47.9167V52.0833Z" fill="#6976E1"/>
<path d="M47.9167 47.9167H52.0833V52.0833H47.9167V47.9167Z" fill="#6976E1"/>
<path d="M47.9167 4.16666H52.0833V47.9167H47.9167V4.16666Z" fill="#6976E1"/>
<path d="M52.0833 2.08333V4.16667H47.9167V2.08333C47.9167 0.916667 48.8333 0 50 0C51.1667 0 52.0833 0.916667 52.0833 2.08333Z" fill="#6976E1"/>
<path d="M4.16666 47.9167H47.9167V52.0833H4.16666V47.9167Z" fill="#6976E1"/>
<path d="M33.3333 25C34.5 25 35.4167 25.9167 35.4167 27.0833C35.4167 28.25 34.5 29.1667 33.3333 29.1667H27.0833V25H33.3333Z" fill="#6976E1"/>
<path d="M32.7083 79.7917C33.5417 80.5833 33.5417 81.9167 32.7083 82.7083C32.3333 83.125 31.7917 83.3333 31.25 83.3333C30.7083 83.3333 30.1667 83.125 29.7917 82.7083L25 77.9167L27.9167 75L32.7083 79.7917Z" fill="#6976E1"/>
<path d="M29.7917 67.2917C30.5833 66.4584 31.9167 66.4584 32.7083 67.2917C33.5417 68.0834 33.5417 69.4167 32.7083 70.2084L27.9167 75L25 72.0834L29.7917 67.2917Z" fill="#6976E1"/>
<path d="M22.0711 74.9958L24.9879 72.079L27.9048 74.9958L24.9879 77.9126L22.0711 74.9958Z" fill="#6976E1"/>
<path d="M27.0833 29.1667V35.4167C27.0833 36.5833 26.1667 37.5 25 37.5C23.8333 37.5 22.9167 36.5833 22.9167 35.4167V29.1667H27.0833Z" fill="#6976E1"/>
<path d="M22.9167 25H27.0833V29.1667H22.9167V25Z" fill="#6976E1"/>
<path d="M27.0833 18.75V25H22.9167V18.75C22.9167 17.5833 23.8333 16.6667 25 16.6667C26.1667 16.6667 27.0833 17.5833 27.0833 18.75Z" fill="#6976E1"/>
<path d="M25 72.0834L22.0833 75L17.2917 70.2084C16.4583 69.4167 16.4583 68.0834 17.2917 67.2917C18.0833 66.4584 19.4167 66.4584 20.2083 67.2917L25 72.0834Z" fill="#6976E1"/>
<path d="M22.9167 25V29.1667H16.6667C15.5 29.1667 14.5833 28.25 14.5833 27.0833C14.5833 25.9167 15.5 25 16.6667 25H22.9167Z" fill="#6976E1"/>
<path d="M20.2083 82.7083C19.8333 83.125 19.2917 83.3333 18.75 83.3333C18.2083 83.3333 17.6667 83.125 17.2917 82.7083C16.4583 81.9167 16.4583 80.5833 17.2917 79.7917L22.0833 75L25 77.9167L20.2083 82.7083Z" fill="#6976E1"/>
<path d="M4.16667 47.9167V52.0833H2.08333C0.916667 52.0833 0 51.1667 0 50C0 48.8333 0.916667 47.9167 2.08333 47.9167H4.16667Z" fill="#6976E1"/>
<path d="M0 10.4167C0 4.66667 4.66667 0 10.4167 0H50C48.8333 0 47.9167 0.916667 47.9167 2.08333V4.16667H10.4167C6.95833 4.16667 4.16667 6.95833 4.16667 10.4167V47.9167H2.08333C0.916667 47.9167 0 48.8333 0 50V10.4167Z" fill="#6976E1"/>
<path d="M4.16667 89.5833C4.16667 93.0417 6.95833 95.8333 10.4167 95.8333H47.9167V97.9167C47.9167 99.0833 48.8333 100 50 100H10.4167C4.66667 100 0 95.3333 0 89.5833V50C0 51.1667 0.916667 52.0833 2.08333 52.0833H4.16667V89.5833Z" fill="#6976E1"/>
</svg>
