<svg width="269" height="140" viewBox="0 0 269 140" fill="none" xmlns="http://www.w3.org/2000/svg">
<path d="M84.5507 13.622H79.1474C77.3817 13.622 75.9451 15.0579 75.9451 16.8228V22.2219C75.9451 23.0488 76.6155 23.7192 77.4424 23.7192C78.2694 23.7192 78.9398 23.0488 78.9398 22.2219V16.8228C78.9398 16.7168 79.0406 16.6167 79.1474 16.6167H84.5507C85.3777 16.6167 86.0481 15.9463 86.0481 15.1194C86.0481 14.2924 85.3777 13.622 84.5507 13.622Z" fill="white"/>
<path d="M63.8094 16.6167H69.2071C69.3177 16.6167 69.4146 16.713 69.4146 16.8228V22.2219C69.4146 23.0488 70.085 23.7192 70.9119 23.7192C71.7389 23.7192 72.4093 23.0488 72.4093 22.2219V16.8228C72.4093 15.0579 70.9728 13.622 69.2071 13.622H63.8094C62.9825 13.622 62.3121 14.2924 62.3121 15.1194C62.3121 15.9463 62.9825 16.6167 63.8094 16.6167Z" fill="white"/>
<path d="M63.8094 10.0914H69.2071C70.9728 10.0914 72.4093 8.65556 72.4093 6.89067V1.49736C72.4093 0.670419 71.7389 0 70.9119 0C70.085 0 69.4146 0.670419 69.4146 1.49736V6.89067C69.4146 7.00247 69.3195 7.0967 69.2071 7.0967H63.8094C62.9825 7.0967 62.3121 7.76712 62.3121 8.59407C62.3121 9.42101 62.9825 10.0914 63.8094 10.0914V10.0914Z" fill="white"/>
<path d="M79.1474 10.0914H84.5507C85.3777 10.0914 86.0481 9.42101 86.0481 8.59407C86.0481 7.76712 85.3777 7.0967 84.5507 7.0967H79.1474C79.0368 7.0967 78.9398 7.00047 78.9398 6.89067V1.49736C78.9398 0.670419 78.2694 0 77.4424 0C76.6155 0 75.9451 0.670419 75.9451 1.49736V6.89067C75.9451 8.65556 77.3817 10.0914 79.1474 10.0914V10.0914Z" fill="white"/>
<path d="M73.8244 79.3593C72.229 67.0055 62.2206 64.3416 54.1786 62.2013C53.6553 62.062 53.1368 61.924 52.6259 61.7849C51.0623 61.3588 50.2845 59.4031 49.7698 58.0197C55.2285 54.2997 59.5963 48.5488 61.2655 42.8426C62.7102 42.5637 64.1782 41.7745 65.3627 40.6062C66.8028 39.1861 67.6289 37.4028 67.6289 35.714V33.4729C67.6289 31.396 65.9409 29.7062 63.8659 29.7062H61.9643C61.6748 23.2407 59.5144 17.2852 55.8047 12.8045C51.4406 7.53301 45.3565 4.68482 38.2101 4.56763C38.1935 4.56763 38.1768 4.56763 38.1602 4.56763C34.1762 4.63531 30.2653 5.68386 26.8501 7.59989C26.129 8.00457 25.8724 8.91737 26.2769 9.6385C26.6816 10.3596 27.5944 10.616 28.3155 10.2117C31.2925 8.54143 34.7053 7.62544 38.1864 7.56235C51.7672 7.79914 58.3271 18.7898 58.9544 29.5001C56.1018 28.9509 54.7686 27.5915 53.4726 26.2706C51.8932 24.6604 50.103 22.8351 46.2066 23.8395C45.0648 24.1332 44.1025 24.3895 43.2534 24.6159C40.6596 25.3073 39.3575 25.6543 38.1856 25.6543C37.0146 25.6543 35.7139 25.3079 33.1227 24.6179C32.2708 24.3911 31.3051 24.134 30.1601 23.8399C26.2653 22.8349 24.4753 24.6604 22.8959 26.2706C21.5992 27.5927 20.2645 28.9531 17.4095 29.5015C17.734 23.0545 19.9177 17.6125 23.7747 13.6846C24.3541 13.0944 24.3455 12.1465 23.7554 11.5671C23.1652 10.9877 22.2173 10.9965 21.6379 11.5865C17.1845 16.1219 14.6985 22.3629 14.4026 29.7066H12.5056C10.4306 29.7066 8.7426 31.3964 8.7426 33.4733V35.7144C8.7426 37.4032 9.56855 39.1865 11.0088 40.6066C12.1935 41.7747 13.6613 42.5641 15.1058 42.843C16.7749 48.55 21.1424 54.3009 26.6016 58.0207C26.0869 59.4041 25.309 61.3592 23.7464 61.7853C23.2379 61.9236 22.7224 62.0606 22.2021 62.1991C16.598 63.6895 10.246 65.3789 6.23222 70.2843C5.70855 70.9244 5.80298 71.8677 6.44285 72.3914C6.72116 72.619 7.05677 72.7298 7.39018 72.7298C7.82382 72.7298 8.25386 72.5425 8.54994 72.1808C11.9508 68.0243 17.5535 66.5343 22.9715 65.0932C23.4974 64.9533 24.0185 64.8147 24.533 64.675C24.5817 64.6616 24.6286 64.6462 24.6763 64.6317L34.1277 70.233C35.6438 71.1196 36.9138 71.5634 38.1844 71.5634C39.4565 71.5634 40.7297 71.1186 42.2512 70.2286L51.6952 64.6317C51.7431 64.646 51.79 64.6616 51.8387 64.675C52.3554 64.8157 52.8793 64.9551 53.4082 65.0958C61.3274 67.2037 69.5162 69.3831 70.854 79.744L73.3456 98.9935C73.3568 99.0812 73.364 99.1557 73.3686 99.2186C73.2929 99.2229 73.2001 99.2261 73.0867 99.2261H59.2575V85.8507C59.2575 85.0237 58.587 84.3533 57.7601 84.3533C56.9331 84.3533 56.2627 85.0237 56.2627 85.8507V99.2253H20.103V85.8499C20.103 85.023 19.4326 84.3525 18.6056 84.3525C17.7787 84.3525 17.1083 85.023 17.1083 85.8499V99.2253H3.28461C3.17101 99.2253 3.07758 99.2223 3.00171 99.2178C3.0065 99.1555 3.01389 99.082 3.02507 98.9959L5.51169 79.7424C5.59994 79.0573 5.72132 78.3964 5.87226 77.7779C6.06811 76.9745 5.57578 76.1643 4.77239 75.9685C3.96861 75.7718 3.15864 76.265 2.96278 77.0684C2.78589 77.7941 2.64414 78.5649 2.54172 79.3593L0.0555008 98.61C-0.0433252 99.3655 -0.0904423 100.465 0.636478 101.294C1.35721 102.115 2.43032 102.22 3.28461 102.22H73.0869C73.9388 102.22 75.0091 102.115 75.7292 101.298C76.4564 100.473 76.4128 99.3719 76.3164 98.612L73.8244 79.3593ZM64.6342 33.4727V35.7138C64.6342 36.5934 64.1205 37.6252 63.26 38.4737C62.8529 38.875 62.3963 39.21 61.9283 39.4604C61.9743 38.9774 61.999 38.4977 61.999 38.0229V32.7007H63.8661C64.2896 32.7007 64.6342 33.0471 64.6342 33.4727V33.4727ZM13.1115 38.4737C12.251 37.6252 11.7373 36.5936 11.7373 35.7138V33.4727C11.7373 33.0471 12.0819 32.7007 12.5056 32.7007H14.3727V38.0229C14.3727 38.4969 14.3974 38.9756 14.4432 39.4576C13.975 39.2084 13.5182 38.8748 13.1115 38.4737ZM17.7549 41.1546C17.7491 41.1266 17.742 41.0995 17.7348 41.0721C17.4966 40.037 17.3674 39.0144 17.3674 38.0229V32.5446C21.5608 31.9077 23.5463 29.8838 25.0341 28.3673C26.5163 26.8564 27.1931 26.167 29.414 26.7398C30.5478 27.0309 31.5065 27.2862 32.3526 27.5116C35.196 28.2687 36.6233 28.6488 38.1862 28.6488C39.7504 28.6488 41.1791 28.2681 44.0253 27.5094C44.8684 27.2848 45.8241 27.0301 46.9539 26.7396C49.1764 26.167 49.853 26.8566 51.3354 28.3675C52.8232 29.8842 54.8087 31.9081 59.0049 32.5448V38.0231C59.0049 39.0176 58.8747 40.0436 58.6349 41.0819C58.6288 41.1055 58.6224 41.129 58.6174 41.1532C57.004 47.9975 50.518 55.3796 43.2574 58.0732C41.3598 58.7744 39.7482 59.101 38.1862 59.101C36.6241 59.101 35.0125 58.7744 33.1165 58.0738C25.8545 55.3809 19.3687 47.9999 17.7549 41.1546V41.1546ZM40.7319 67.6473C38.6382 68.8722 37.7338 68.8722 35.6472 67.6517L27.4237 62.7781C28.2828 61.7649 28.8276 60.5634 29.2076 59.5927C30.1441 60.0873 31.1024 60.5209 32.0765 60.8821C34.317 61.7098 36.2582 62.0955 38.1858 62.0955C40.1134 62.0955 42.0545 61.71 44.297 60.8815C45.2705 60.5203 46.2282 60.0871 47.1639 59.5925C47.5439 60.5632 48.0887 61.7649 48.9478 62.7781L40.7319 67.6473Z" fill="white"/>
<path d="M29.3954 39.1003C28.5685 39.1003 27.8981 39.7708 27.8981 40.5977V42.4484C27.8981 43.2754 28.5685 43.9458 29.3954 43.9458C30.2224 43.9458 30.8928 43.2754 30.8928 42.4484V40.5977C30.8928 39.7708 30.2224 39.1003 29.3954 39.1003Z" fill="white"/>
<path d="M46.676 39.1003C45.8491 39.1003 45.1786 39.7708 45.1786 40.5977V42.4484C45.1786 43.2754 45.8491 43.9458 46.676 43.9458C47.503 43.9458 48.1734 43.2754 48.1734 42.4484V40.5977C48.1734 39.7708 47.503 39.1003 46.676 39.1003Z" fill="white"/>
<path d="M35.0343 37.3447C35.3629 36.5858 35.0142 35.7042 34.2555 35.3755L28.8067 33.0155C28.0472 32.6867 27.1662 33.0357 26.8376 33.7943C26.5089 34.5532 26.8577 35.4348 27.6164 35.7635L33.0652 38.1235C33.259 38.2074 33.4609 38.2473 33.6595 38.2473C34.2383 38.2473 34.7897 37.9095 35.0343 37.3447V37.3447Z" fill="white"/>
<path d="M43.2049 38.0208C43.4036 38.0208 43.6054 37.9811 43.7993 37.897L49.2481 35.537C50.007 35.2083 50.3555 34.3265 50.0269 33.5678C49.6981 32.809 48.8167 32.4604 48.0578 32.789L42.6092 35.149C41.8503 35.4777 41.5017 36.3595 41.8304 37.1182C42.0747 37.6832 42.626 38.0208 43.2049 38.0208V38.0208Z" fill="white"/>
<path d="M34.5326 51.7241C35.1171 52.309 36.0651 52.3094 36.6501 51.7249C37.6485 50.727 39.1924 50.9722 40.1086 51.7856C40.3937 52.0387 40.7486 52.1631 41.102 52.1631C41.5151 52.1631 41.9266 51.993 42.2224 51.6598C42.7715 51.0413 42.7152 50.0949 42.0967 49.5459C39.869 47.568 36.5466 47.5945 34.5332 49.6066C33.9482 50.191 33.948 51.1391 34.5326 51.7241V51.7241Z" fill="white"/>
<path d="M251.346 6H219.689C218.087 6 216.783 7.30408 216.783 8.90691V13.6424H215.861C213.732 13.6424 212 15.3745 212 17.5036V27.944C212 30.0727 213.732 31.8048 215.861 31.8048H216.783V74.2373C216.783 75.8403 218.087 77.1442 219.689 77.1442H265.622C267.225 77.1442 268.529 75.8402 268.529 74.2373V62.2592C268.529 61.6837 268.062 61.2171 267.487 61.2171C266.911 61.2171 266.445 61.6837 266.445 62.2592V74.2373C266.445 74.691 266.076 75.0599 265.622 75.0599H219.69C219.236 75.0599 218.867 74.6909 218.867 74.2373V26.1676H223.383C223.958 26.1676 224.425 25.701 224.425 25.1254C224.425 24.5499 223.958 24.0833 223.383 24.0833H215.861C215.221 24.0833 214.616 24.2399 214.084 24.5168V17.5036C214.084 16.5238 214.881 15.7268 215.861 15.7268H232.157C233.137 15.7268 233.934 16.5238 233.934 17.5036V22.3063C233.934 23.2861 233.137 24.0831 232.157 24.0831H228.246C227.67 24.0831 227.204 24.5497 227.204 25.1253C227.204 25.7008 227.67 26.1674 228.246 26.1674H232.157C234.286 26.1674 236.018 24.4354 236.018 22.3063V17.5036C236.018 15.3745 234.286 13.6424 232.157 13.6424H218.867V8.90691C218.867 8.45323 219.236 8.0843 219.689 8.0843H250.441C253.759 8.0843 256.459 10.7842 256.459 14.1028V15.1627C256.459 16.7657 257.763 18.0696 259.366 18.0696H260.426C263.745 18.0696 266.445 20.7697 266.445 24.0883V57.3957C266.445 57.9713 266.911 58.4379 267.487 58.4379C268.062 58.4379 268.529 57.9713 268.529 57.3957V23.1836C268.529 13.7084 260.821 6 251.346 6V6ZM215.861 26.1676H216.783V29.7205H215.861C214.881 29.7205 214.084 28.9236 214.084 27.944C214.084 26.9643 214.881 26.1676 215.861 26.1676ZM260.426 15.9855H259.366C258.913 15.9855 258.544 15.6164 258.544 15.1629V14.1029C258.544 12.2212 257.899 10.4876 256.819 9.11075C260.75 10.6447 263.885 13.7799 265.418 17.7102C264.041 16.6299 262.308 15.9855 260.426 15.9855V15.9855Z" fill="white"/>
<path d="M224.772 30.9559C223.432 30.9559 222.341 32.0469 222.341 33.3876V69.1544C222.341 70.4952 223.432 71.5861 224.772 71.5861H260.539C261.88 71.5861 262.971 70.4952 262.971 69.1544V33.3876C262.971 32.0469 261.88 30.9559 260.539 30.9559H224.772ZM247.41 39.8976H250.324V44.151H241.845V39.8976H242.547C243.123 39.8976 243.589 39.431 243.589 38.8554C243.589 38.2799 243.123 37.8133 242.547 37.8133H241.845V33.0402H250.324V37.8133H247.41C246.835 37.8133 246.368 38.2799 246.368 38.8554C246.368 39.431 246.835 39.8976 247.41 39.8976V39.8976ZM241.845 63.1641V58.9108H250.324V63.1641H241.845ZM250.324 65.2484V69.5018H241.845V65.2484H250.324ZM229.198 52.5729V56.8263H224.425V52.5729H229.198ZM224.425 50.4886V46.2353H229.198V50.4886H224.425ZM231.282 52.5729H239.761V56.8263H231.282V52.5729ZM241.845 52.5729H250.324V56.8263H241.845V52.5729ZM252.408 52.5729H260.887V56.8263H252.408V52.5729ZM252.408 50.4886V46.2353H260.887V50.4886H252.408ZM250.324 50.4886H241.845V46.2353H250.324V50.4886ZM239.761 50.4886H231.282V46.2353H239.761V50.4886ZM231.282 44.151V39.8976H239.761V44.151H231.282ZM231.282 37.8133V33.0402H239.761V37.8133H231.282ZM229.198 44.151H224.425V39.8976H229.198V44.151ZM224.425 58.9108H229.198V63.1641H224.425V58.9108ZM231.282 58.9108H239.761V63.1641H231.282V58.9108ZM252.408 58.9108H260.887V63.1641H252.408V58.9108ZM260.887 44.151H252.408V39.8976H260.887V44.151ZM224.425 33.3876C224.425 33.1961 224.581 33.0402 224.772 33.0402H229.198V37.8133H224.425V33.3876ZM224.425 69.1544V65.2484H229.198V69.5018H224.772C224.581 69.5018 224.425 69.3459 224.425 69.1544ZM231.282 65.2484H239.761V69.5018H231.282V65.2484ZM260.539 69.5018H252.408V65.2484H260.887V69.1544C260.887 69.3459 260.731 69.5018 260.539 69.5018ZM260.887 33.3876V37.8133H252.408V33.0402H260.539C260.731 33.0402 260.887 33.196 260.887 33.3876Z" fill="white"/>
<path d="M182.742 67.9562L186.818 63.8801C188.402 62.2961 188.402 59.7278 186.818 58.1447C185.234 56.5607 182.667 56.5607 181.083 58.1447L177.007 62.2208C170.168 56.5226 161.858 53.0802 152.993 52.2744V44.1118H156.914C159.154 44.1118 160.97 42.2954 160.97 40.0555C160.97 37.8156 159.154 36 156.914 36H140.961C138.721 36 136.905 37.8156 136.905 40.0555C136.905 42.2954 138.721 44.1118 140.961 44.1118H144.882V52.2744C122.692 54.2922 105 72.9334 105 96.0251C105 120.309 124.651 139.963 148.938 139.963C173.221 139.963 192.875 120.312 192.875 96.0251C192.875 85.652 189.303 75.8285 182.742 67.9562V67.9562ZM148.937 131.851C129.183 131.851 113.111 115.78 113.111 96.0251C113.111 76.2711 129.183 60.1998 148.937 60.1998C168.692 60.1998 184.763 76.2711 184.763 96.0251C184.763 115.78 168.692 131.851 148.937 131.851ZM167.733 77.2301C169.317 78.814 169.317 81.3823 167.733 82.9655L151.805 98.8933C150.221 100.477 147.653 100.477 146.07 98.8933C144.486 97.3093 144.486 94.741 146.07 93.1578L161.997 77.2301C163.581 75.6461 166.149 75.6461 167.733 77.2301V77.2301Z" fill="white"/>
</svg>
