<svg width="283" height="312" viewBox="0 0 283 312" fill="none" xmlns="http://www.w3.org/2000/svg">
<path d="M186.825 19.7884H178.976C176.411 19.7884 174.324 21.8742 174.324 24.4381V32.2812C174.324 33.4825 175.297 34.4564 176.499 34.4564C177.7 34.4564 178.674 33.4825 178.674 32.2812V24.4381C178.674 24.2841 178.82 24.1388 178.976 24.1388H186.825C188.026 24.1388 189 23.1649 189 21.9636C189 20.7623 188.026 19.7884 186.825 19.7884Z" fill="white"/>
<path d="M156.694 24.1388H164.536C164.696 24.1388 164.837 24.2786 164.837 24.4381V32.2812C164.837 33.4825 165.811 34.4564 167.012 34.4564C168.213 34.4564 169.187 33.4825 169.187 32.2812V24.4381C169.187 21.8742 167.101 19.7884 164.536 19.7884H156.694C155.493 19.7884 154.519 20.7623 154.519 21.9636C154.519 23.1649 155.493 24.1388 156.694 24.1388Z" fill="white"/>
<path d="M156.694 14.6596H164.536C167.101 14.6596 169.187 12.5737 169.187 10.0099V2.17518C169.187 0.973902 168.213 0 167.012 0C165.811 0 164.837 0.973902 164.837 2.17518V10.0099C164.837 10.1723 164.699 10.3092 164.536 10.3092H156.694C155.493 10.3092 154.519 11.2831 154.519 12.4844C154.519 13.6857 155.493 14.6596 156.694 14.6596Z" fill="white"/>
<path d="M178.976 14.6596H186.825C188.026 14.6596 189 13.6857 189 12.4844C189 11.2831 188.026 10.3092 186.825 10.3092H178.976C178.815 10.3092 178.674 10.1694 178.674 10.0099V2.17518C178.674 0.973902 177.7 0 176.499 0C175.297 0 174.324 0.973902 174.324 2.17518V10.0099C174.324 12.5737 176.411 14.6596 178.976 14.6596Z" fill="white"/>
<path d="M171.243 115.283C168.925 97.3372 154.386 93.4674 142.704 90.3583C141.944 90.1559 141.191 89.9555 140.448 89.7533C138.177 89.1344 137.047 86.2933 136.299 84.2838C144.229 78.8797 150.574 70.5256 152.999 62.2364C155.098 61.8312 157.23 60.6847 158.951 58.9875C161.043 56.9246 162.243 54.3341 162.243 51.8808V48.6252C162.243 45.6081 159.791 43.1533 156.777 43.1533H154.014C153.594 33.7612 150.455 25.1098 145.066 18.6007C138.727 10.9429 129.888 6.80544 119.507 6.63519C119.483 6.63519 119.458 6.63519 119.434 6.63519C113.647 6.73351 107.966 8.25672 103.005 11.0401C101.957 11.628 101.584 12.954 102.172 14.0015C102.76 15.0491 104.086 15.4215 105.133 14.8342C109.458 12.4078 114.416 11.0772 119.472 10.9856C139.201 11.3295 148.73 27.2954 149.642 42.854C145.498 42.0562 143.561 40.0814 141.678 38.1626C139.384 35.8236 136.783 33.1719 131.123 34.631C129.465 35.0576 128.067 35.43 126.833 35.7589C123.065 36.7632 121.174 37.2673 119.471 37.2673C117.77 37.2673 115.881 36.7641 112.117 35.7618C110.879 35.4323 109.476 35.0588 107.813 34.6316C102.155 33.1716 99.5547 35.8236 97.2603 38.1626C95.3766 40.0831 93.4378 42.0594 89.2904 42.8561C89.7617 33.4906 92.934 25.5851 98.537 19.8792C99.3786 19.0219 99.3662 17.6448 98.5089 16.8032C97.6516 15.9615 96.2745 15.9743 95.4329 16.8313C88.9636 23.4198 85.3522 32.486 84.9224 43.1539H82.1666C79.1523 43.1539 76.7002 45.6087 76.7002 48.6258V51.8813C76.7002 54.3347 77.9 56.9252 79.9922 58.9881C81.7132 60.685 83.8455 61.8318 85.9438 62.237C88.3684 70.5273 94.713 78.8815 102.643 84.2852C101.896 86.2948 100.766 89.135 98.4958 89.7539C97.7571 89.9549 97.0083 90.1539 96.2525 90.3551C88.1115 92.5202 78.8841 94.9744 73.0534 102.1C72.2927 103.03 72.4299 104.4 73.3594 105.161C73.7637 105.492 74.2512 105.653 74.7355 105.653C75.3655 105.653 75.9902 105.381 76.4203 104.855C81.3606 98.8172 89.4995 96.6527 97.3702 94.5593C98.1342 94.356 98.8911 94.1547 99.6385 93.9517C99.7093 93.9323 99.7774 93.91 99.8467 93.8888L113.577 102.026C115.779 103.314 117.624 103.958 119.47 103.958C121.318 103.958 123.167 103.312 125.377 102.019L139.096 93.8888C139.166 93.9097 139.234 93.9323 139.305 93.9517C140.055 94.1562 140.816 94.3586 141.585 94.5631C153.089 97.6252 164.985 100.791 166.928 115.842L170.547 143.805C170.564 143.933 170.574 144.041 170.581 144.132C170.471 144.139 170.336 144.143 170.171 144.143H150.082V124.713C150.082 123.512 149.108 122.538 147.907 122.538C146.705 122.538 145.732 123.512 145.732 124.713V144.142H93.2032V124.712C93.2032 123.511 92.2292 122.537 91.028 122.537C89.8267 122.537 88.8528 123.511 88.8528 124.712V144.142H68.7715C68.6065 144.142 68.4707 144.138 68.3605 144.131C68.3675 144.041 68.3782 143.934 68.3945 143.809L72.0067 115.84C72.1349 114.845 72.3112 113.885 72.5305 112.986C72.815 111.819 72.0998 110.642 70.9327 110.358C69.7651 110.072 68.5885 110.788 68.304 111.955C68.047 113.01 67.8411 114.129 67.6923 115.283L64.0806 143.248C63.9371 144.346 63.8686 145.944 64.9246 147.147C65.9716 148.339 67.5305 148.493 68.7715 148.493H170.172C171.409 148.493 172.964 148.34 174.01 147.153C175.066 145.954 175.003 144.355 174.863 143.251L171.243 115.283ZM157.893 48.6249V51.8805C157.893 53.1583 157.146 54.6572 155.896 55.8898C155.305 56.4727 154.642 56.9594 153.962 57.3231C154.029 56.6215 154.065 55.9246 154.065 55.2349V47.5034H156.777C157.392 47.5034 157.893 48.0066 157.893 48.6249ZM83.0468 55.8898C81.7968 54.6572 81.0505 53.1586 81.0505 51.8805V48.6249C81.0505 48.0066 81.5511 47.5034 82.1666 47.5034H84.8789V55.2349C84.8789 55.9234 84.9148 56.6189 84.9812 57.319C84.3011 56.9571 83.6376 56.4724 83.0468 55.8898ZM89.7922 59.7842C89.7838 59.7436 89.7733 59.7042 89.7629 59.6644C89.4169 58.1607 89.2292 56.6752 89.2292 55.2349V47.2766C95.3209 46.3514 98.2052 43.4115 100.366 41.2084C102.52 39.0135 103.503 38.0121 106.729 38.8442C108.376 39.267 109.769 39.638 110.998 39.9654C115.128 41.0652 117.202 41.6174 119.472 41.6174C121.744 41.6174 123.82 41.0643 127.954 39.9622C129.179 39.6359 130.568 39.2659 132.209 38.8439C135.437 38.0121 136.42 39.0138 138.574 41.2087C140.735 43.412 143.619 46.352 149.715 47.2769V55.2352C149.715 56.6798 149.526 58.1702 149.178 59.6786C149.169 59.7129 149.159 59.7471 149.152 59.7822C146.808 69.7248 137.386 80.4485 126.839 84.3615C124.082 85.3801 121.741 85.8545 119.472 85.8545C117.203 85.8545 114.862 85.3801 112.108 84.3624C101.558 80.4505 92.1364 69.7283 89.7922 59.7842ZM123.17 98.2696C120.129 100.049 118.815 100.049 115.784 98.276L103.838 91.1962C105.086 89.7243 105.877 87.979 106.429 86.5689C107.79 87.2873 109.182 87.9172 110.597 88.4418C113.851 89.6443 116.671 90.2046 119.472 90.2046C122.272 90.2046 125.092 89.6446 128.349 88.441C129.763 87.9163 131.155 87.287 132.514 86.5686C133.066 87.9787 133.857 89.7243 135.105 91.1962L123.17 98.2696Z" fill="white"/>
<path d="M106.702 56.8002C105.501 56.8002 104.527 57.7741 104.527 58.9754V61.6639C104.527 62.8652 105.501 63.8391 106.702 63.8391C107.903 63.8391 108.877 62.8652 108.877 61.6639V58.9754C108.877 57.7741 107.903 56.8002 106.702 56.8002Z" fill="white"/>
<path d="M131.805 56.8002C130.604 56.8002 129.63 57.7741 129.63 58.9754V61.6639C129.63 62.8652 130.604 63.8391 131.805 63.8391C133.006 63.8391 133.98 62.8652 133.98 61.6639V58.9754C133.98 57.7741 133.006 56.8002 131.805 56.8002Z" fill="white"/>
<path d="M114.894 54.2497C115.371 53.1473 114.864 51.8665 113.762 51.3892L105.847 47.9608C104.744 47.4831 103.464 47.9901 102.986 49.0922C102.509 50.1945 103.016 51.4753 104.118 51.9527L112.033 55.3811C112.315 55.5029 112.608 55.5609 112.896 55.5609C113.737 55.5609 114.538 55.0701 114.894 54.2497Z" fill="white"/>
<path d="M126.763 55.232C127.051 55.232 127.345 55.1743 127.626 55.0522L135.542 51.6238C136.644 51.1464 137.15 49.8654 136.673 48.7633C136.195 47.6609 134.915 47.1545 133.812 47.6319L125.897 51.0603C124.795 51.5377 124.289 52.8187 124.766 53.9208C125.121 54.7416 125.922 55.232 126.763 55.232Z" fill="white"/>
<path d="M114.165 75.1384C115.014 75.9882 116.391 75.9888 117.241 75.1396C118.691 73.69 120.934 74.0462 122.265 75.2277C122.679 75.5955 123.195 75.7762 123.708 75.7762C124.308 75.7762 124.906 75.5291 125.336 75.045C126.133 74.1465 126.051 72.7718 125.153 71.9742C121.917 69.101 117.09 69.1395 114.166 72.0624C113.316 72.9113 113.315 74.2886 114.165 75.1384Z" fill="white"/>
<path d="M83.5089 161H16.3204C12.9185 161 10.1506 163.768 10.1506 167.17V177.221H8.19499C3.6765 177.221 0 180.897 0 185.416V207.575C0 212.093 3.67591 215.769 8.1944 215.769H10.1506V305.83C10.1506 309.232 12.9185 312 16.3204 312H113.81C117.212 312 119.98 309.232 119.98 305.83V280.407C119.98 279.186 118.99 278.195 117.768 278.195C116.547 278.195 115.556 279.186 115.556 280.407V305.83C115.556 306.793 114.773 307.576 113.81 307.576H16.3207C15.3578 307.576 14.5747 306.793 14.5747 305.83V203.805H24.1597C25.3813 203.805 26.3716 202.814 26.3716 201.593C26.3716 200.371 25.3813 199.381 24.1597 199.381H8.1944C6.8357 199.381 5.55308 199.713 4.42383 200.301V185.416C4.42383 183.336 6.11579 181.645 8.19499 181.645H42.782C44.8615 181.645 46.5534 183.336 46.5534 185.416V195.609C46.5534 197.689 44.8617 199.381 42.782 199.381H34.4814C33.2598 199.381 32.2695 200.371 32.2695 201.592C32.2695 202.814 33.2598 203.804 34.4814 203.804H42.782C47.3007 203.804 50.9772 200.128 50.9772 195.609V185.416C50.9772 180.897 47.301 177.221 42.7823 177.221H14.5745V167.17C14.5745 166.207 15.3578 165.424 16.3204 165.424H81.5884C88.632 165.424 94.3626 171.154 94.3626 178.198V180.447C94.3626 183.85 97.1305 186.617 100.532 186.617H102.782C109.825 186.617 115.556 192.348 115.556 199.391V270.085C115.556 271.306 116.546 272.297 117.768 272.297C118.989 272.297 119.98 271.306 119.98 270.085V197.471C119.98 177.361 103.619 161 83.5089 161V161ZM8.1944 203.805H10.1506V211.346H8.1944C6.1155 211.346 4.42383 209.654 4.42383 207.575C4.42383 205.496 6.1155 203.805 8.1944 203.805ZM102.782 182.194H100.533C99.57 182.194 98.7867 181.41 98.7867 180.448V178.198C98.7867 174.204 97.4189 170.525 95.1265 167.602C103.468 170.858 110.122 177.512 113.378 185.854C110.455 183.562 106.776 182.194 102.782 182.194Z" fill="white"/>
<path d="M27.1086 213.968C24.2629 213.968 21.9475 216.283 21.9475 219.129V295.042C21.9475 297.888 24.2629 300.203 27.1086 300.203H103.022C105.868 300.203 108.183 297.888 108.183 295.042V219.129C108.183 216.283 105.868 213.968 103.022 213.968H27.1086ZM75.1567 232.946H81.3403V241.973H63.3451V232.946H64.8344C66.056 232.946 67.0463 231.956 67.0463 230.734C67.0463 229.512 66.056 228.522 64.8344 228.522H63.3451V218.391H81.3403V228.522H75.1567C73.9351 228.522 72.9448 229.512 72.9448 230.734C72.9448 231.956 73.9351 232.946 75.1567 232.946ZM63.3448 282.328V273.3H81.34V282.328H63.3448ZM81.3403 286.752V295.779H63.3451V286.752H81.3403ZM36.5019 259.849V268.876H26.3713V259.849H36.5019ZM26.3713 255.425V246.397H36.5019V255.425H26.3713ZM40.9257 259.849H58.9209V268.876H40.9257V259.849ZM63.3448 259.849H81.34V268.876H63.3448V259.849ZM85.7642 259.849H103.759V268.876H85.7642V259.849ZM85.7642 255.425V246.397H103.759V255.425H85.7642ZM81.3403 255.425H63.3451V246.397H81.3403V255.425ZM58.9209 255.425H40.9257V246.397H58.9209V255.425ZM40.9257 241.973V232.946H58.9209V241.973H40.9257ZM40.9257 228.522V218.391H58.9209V228.522H40.9257ZM36.5019 241.973H26.3713V232.946H36.5019V241.973ZM26.3713 273.3H36.5019V282.328H26.3713V273.3ZM40.9257 273.3H58.9209V282.328H40.9257V273.3ZM85.7642 273.3H103.759V282.328H85.7642V273.3ZM103.759 241.973H85.7642V232.946H103.759V241.973ZM26.3713 219.129C26.3713 218.722 26.7022 218.391 27.1086 218.391H36.5019V228.522H26.3713V219.129ZM26.3713 295.042V286.752H36.5019V295.779H27.1086C26.7022 295.779 26.3713 295.448 26.3713 295.042ZM40.9257 286.752H58.9209V295.779H40.9257V286.752ZM103.022 295.779H85.7642V286.752H103.759V295.042C103.759 295.448 103.428 295.779 103.022 295.779ZM103.759 219.129V228.522H85.7642V218.391H103.022C103.428 218.391 103.759 218.722 103.759 219.129Z" fill="white"/>
<path d="M267.628 146.296L273.534 140.391C275.828 138.096 275.828 134.375 273.534 132.082C271.239 129.787 267.519 129.787 265.224 132.082L259.319 137.987C249.412 129.732 237.372 124.745 224.53 123.577V111.752H230.21C233.455 111.752 236.085 109.12 236.085 105.875C236.085 102.63 233.455 100 230.21 100H207.098C203.853 100 201.223 102.63 201.223 105.875C201.223 109.12 203.853 111.752 207.098 111.752H212.778V123.577C180.631 126.501 155 153.507 155 186.961C155 222.142 183.469 250.616 218.655 250.616C253.835 250.616 282.308 222.146 282.308 186.961C282.308 171.933 277.133 157.701 267.628 146.296ZM218.654 238.864C190.035 238.864 166.751 215.58 166.751 186.961C166.751 158.342 190.035 135.059 218.654 135.059C247.273 135.059 270.556 158.342 270.556 186.961C270.556 215.58 247.273 238.864 218.654 238.864ZM245.884 159.732C248.179 162.026 248.179 165.747 245.884 168.041L222.809 191.116C220.514 193.411 216.793 193.411 214.5 191.116C212.205 188.821 212.205 185.1 214.5 182.807L237.574 159.732C239.868 157.437 243.589 157.437 245.884 159.732Z" fill="white"/>
</svg>
