<svg width="84" height="100" viewBox="0 0 84 100" fill="none" xmlns="http://www.w3.org/2000/svg">
<path d="M41.6668 0C18.3043 0 0.000213623 8.2375 0.000213623 18.75C0.000213623 29.2625 18.3043 37.5 41.6668 37.5C65.0293 37.5 83.3334 29.2625 83.3334 18.75C83.3334 8.2375 65.0293 0 41.6668 0ZM41.6668 33.3334C19.5668 33.3334 4.16682 25.6459 4.16682 18.75C4.16682 11.8541 19.5668 4.1666 41.6668 4.1666C63.7668 4.1666 79.1668 11.8541 79.1668 18.75C79.1668 25.6459 63.7668 33.3334 41.6668 33.3334Z" fill="#6976E1"/>
<path d="M81.2502 37.5C80.1002 37.5 79.1668 38.4334 79.1668 39.5834C79.1668 46.4793 63.7668 54.1668 41.6668 54.1668C19.5668 54.1668 4.1668 46.4793 4.1668 39.5834C4.1668 38.4334 3.2334 37.5 2.0834 37.5C0.933398 37.5 0 38.4334 0 39.5834C0 50.0959 18.3041 58.3334 41.6666 58.3334C65.0291 58.3334 83.3332 50.0959 83.3332 39.5834C83.3334 38.4334 82.4002 37.5 81.2502 37.5Z" fill="#6976E1"/>
<path d="M81.2502 58.3334C80.1002 58.3334 79.1668 59.2668 79.1668 60.4168C79.1668 67.3125 63.7668 75 41.6668 75C19.5668 75 4.1668 67.3125 4.1668 60.4166C4.1668 59.2666 3.2334 58.3332 2.0834 58.3332C0.933398 58.3332 0 59.2666 0 60.4166C0 70.9291 18.3041 79.1666 41.6666 79.1666C65.0291 79.1666 83.3332 70.9291 83.3332 60.4166C83.3334 59.2666 82.4002 58.3334 81.2502 58.3334Z" fill="#6976E1"/>
<path d="M81.2502 16.6666C80.1002 16.6666 79.1668 17.6 79.1668 18.75V81.25C79.1668 88.1459 63.7668 95.8334 41.6668 95.8334C19.5668 95.8334 4.16682 88.1459 4.16682 81.25V18.75C4.16682 17.6 3.23342 16.6666 2.08342 16.6666C0.933417 16.6666 0.000213623 17.6 0.000213623 18.75V81.25C0.000213623 91.7625 18.3043 100 41.6668 100C65.0293 100 83.3334 91.7625 83.3334 81.25V18.75C83.3334 17.6 82.4002 16.6666 81.2502 16.6666Z" fill="#6976E1"/>
</svg>
