<svg width="87" height="91" viewBox="0 0 87 91" fill="none" xmlns="http://www.w3.org/2000/svg">
<ellipse cx="50.5624" cy="36.1946" rx="31.8998" ry="32.7291" fill="white" fill-opacity="0.8"/>
<path d="M23.0986 58.6657C17.8455 51.2096 15.4927 41.9653 16.5109 32.7824C17.5291 23.5994 21.8432 15.1549 28.5902 9.13831C35.3371 3.12176 44.0194 -0.0231542 52.8998 0.332764C61.7803 0.688682 70.2042 4.51918 76.486 11.0579C82.7679 17.5967 86.4445 26.3614 86.7803 35.5987C87.1162 44.8359 84.0864 53.8645 78.2973 60.878C72.5081 67.8915 64.3864 72.3728 55.5572 73.4253C46.7279 74.4778 37.8421 72.0239 30.6776 66.5545H30.683C30.5202 66.7802 30.3466 66.9947 30.1513 67.2035L9.26452 88.9288C8.24726 89.9876 6.86728 90.5828 5.42815 90.5833C3.98902 90.5838 2.60863 89.9897 1.59065 88.9316C0.572676 87.8735 0.000491707 86.4381 -1.70141e-05 84.9412C-0.000525735 83.4443 0.570684 82.0085 1.58794 80.9497L22.4747 59.2243C22.6687 59.0201 22.8773 58.8315 23.0986 58.6601V58.6657ZM21.6989 36.9742C21.6989 41.05 22.4707 45.0858 23.9703 48.8513C25.4698 52.6167 27.6676 56.0381 30.4384 58.9201C33.2091 61.8021 36.4985 64.0882 40.1186 65.6479C43.7388 67.2076 47.6188 68.0104 51.5372 68.0104C55.4557 68.0104 59.3357 67.2076 62.9559 65.6479C66.576 64.0882 69.8654 61.8021 72.6361 58.9201C75.4068 56.0381 77.6047 52.6167 79.1042 48.8513C80.6037 45.0858 81.3755 41.05 81.3755 36.9742C81.3755 28.7429 78.2319 20.8487 72.6361 15.0283C67.0403 9.20791 59.4508 5.93803 51.5372 5.93803C43.6236 5.93803 36.0341 9.20791 30.4384 15.0283C24.8426 20.8487 21.6989 28.7429 21.6989 36.9742V36.9742Z" fill="#6976E1"/>
</svg>
